# xmcd
#
# Track frame offsets: 
#        150
#        25584
#        48802
#        66485
#        91353
#        109580
#        119520
#        137745
#        150167
#        166098
#        182378
#        196444
#        212436
#        235034
#        262870
#        288449
#
# Disc length: 4180 seconds
#
# Revision: 2
# Processed by: cddbd v1.5.2PL0 Copyright (c) Steve Scherf et al.
# Submitted via: ExactAudioCopy v1.0b3
#
DISCID=c9105210
DTITLE=Björn Wilke - The Club Mix Vol.3 [CD2)
DYEAR=2000
DGENRE=Dance and Electronica
TTITLE0=Sole on your shoes - Erik.K.J Wesenberg
TTITLE1=Fired up (B.& M. classic mix) - Funky Green Dogs
TTITLE2=Right on, right on - Silicon Soul
TTITLE3=Can we really do this - Knee Deep Brothers
TTITLE4=Bad habit (Knee Deep club mix) - ATFC
TTITLE5=Do it easy - Laguna
TTITLE6=Deep menance (Rhein Dpt. mix) - D'menace
TTITLE7=Do it to me again (Jazz'n'groove club mix) - Soulsearcher
TTITLE8=Gonna get your love (Rhein Dpt. mix) - S-sense feat. Jenny B.
TTITLE9=Rythm loop - The Tribal Men
TTITLE10=Tribal surprise - DJ Antoine vs. Mad Mark
TTITLE11=Bad girls (George Morel mix) - DJ Shahrokh feat. Esther Adams
TTITLE12=Free at last (instrumental mix) - Simon
TTITLE13=Escape this - 68 Beats
TTITLE14=Monsterbaze - Steve Bug vs. DJ T.
TTITLE15=Freiburg v 3.0 (Club Europe mix) - Tocotronic feat. Console
EXTD=
EXTT0=
EXTT1=
EXTT2=
EXTT3=
EXTT4=
EXTT5=
EXTT6=
EXTT7=
EXTT8=
EXTT9=
EXTT10=
EXTT11=
EXTT12=
EXTT13=
EXTT14=
EXTT15=
PLAYORDER=
